<svg width="3000" height="3000" viewBox="0 0 3000 3000" fill="none" xmlns="http://www.w3.org/2000/svg">
<g clip-path="url(#clip0_51_3)">
<path d="M3000 3000V2H2V3000H3000Z" fill="#9B59B6"/>
<path d="M3000 2217.68H2987.02C2297.46 2217.67 1607.89 2217.64 918.33 2217.74C868.508 2217.75 820.693 2208.95 776.427 2185.75C684.635 2137.65 630.047 2062.27 613.606 1959.69C611.23 1944.86 610.339 1929.89 610.338 1914.87C610.336 1614.25 610.198 1313.63 610.398 1013.01C610.492 871.91 703.476 752.864 839.188 719.062C861.277 713.56 883.749 711.048 906.456 710.407C912.783 710.229 919.119 710.332 925.452 710.332C1612.02 710.329 2313.44 710.504 3000 710.5C3000.93 1212.42 3000 1714.7 3000 2217.68Z" fill="#F1C40F"/>
<path d="M174.953 1484.64C174.121 1477.57 173.967 1470.57 173.967 1463.57C173.955 1174.28 174.091 884.982 173.737 595.688C173.703 568.465 175.905 541.857 183.132 515.654C188.001 498.001 191.264 479.944 197.264 462.557C202.322 447.902 209.398 434.349 218.25 421.815C233.598 400.085 247.667 377.347 267.615 359.146C274.059 353.266 280.98 348.168 287.942 343.039C302.96 331.973 317.791 320.63 334.031 311.341C345.942 304.527 358.38 298.935 371.731 295.598C398.231 288.975 424.622 281.858 451.562 277.149C455.478 276.464 459.492 276.151 463.471 276.044C470.465 275.858 477.467 275.951 484.466 275.951C1319.69 275.949 2164.78 275.949 3000 275.95V519C2158.08 519.935 1318.15 519.996 476.228 519.995C450.995 516.494 425.401 542.214 418.984 563.176C418.219 565.674 418.136 568.431 418.059 571.077C417.912 576.073 417.99 581.075 417.99 586.074C417.988 876.048 417.992 1166.02 417.973 1456C417.972 1464.33 417.742 1472.65 417.537 1481.98C409.735 1481.88 410.464 1474.95 408.853 1469.97C394.876 1426.78 366.01 1399.01 321.996 1388.5C261.03 1373.94 199.738 1411.01 182.813 1471.32C181.454 1476.16 181.928 1482.32 174.953 1484.64Z" fill="#8848A2"/>
<path d="M1.99951 2457.95C657.885 2457.95 1376.11 2457.95 2032 2457.96V2702C1378.04 2702.02 655.96 2701.99 1.9999 2701.99L1.99951 2457.95Z" fill="#8848A2"/>
<path d="M2013.81 2701.44C2007.51 2699.99 2002.04 2698.63 1996.66 2696.97C1947.07 2681.68 1908.16 2634.63 1910.59 2574.98C1912.92 2518.12 1953.23 2471.43 2008.32 2460.01C2009.95 2459.68 2011.57 2459.32 2013.88 2458.58C2031.89 2457.45 2049.09 2457.22 2066.11 2461.98C2119.91 2477.04 2157.7 2528.32 2155.57 2583.95C2153.38 2641.26 2112.15 2689.55 2056.48 2700.23C2042.57 2702.9 2028.66 2702.61 2013.81 2701.44Z" fill="#F1C310"/>
<path d="M174.277 1485.46C176.265 1481.35 176.042 1477.53 176.923 1474.01C190.926 1418.09 241.411 1379.12 298.389 1380.36C355.697 1381.6 404.11 1422.05 416.07 1478.67C416.276 1479.64 416.48 1480.62 417.071 1482.29C418.639 1500.29 418.999 1517.49 414.399 1534.55C399.55 1589.6 348.1 1627.92 291.708 1625.59C233.997 1623.21 186.152 1581.73 175.572 1525.18C173.152 1512.24 173.622 1499.33 174.277 1485.46Z" fill="#F1C310"/>
<path d="M1300.1 1280.22C1297.28 1271.15 1293.76 1263.27 1289.44 1255.71C1278.12 1235.88 1261.07 1224.08 1238.69 1220.53C1209.52 1215.9 1180.8 1218.48 1153.1 1228.88C1127.51 1238.49 1109.25 1256.2 1098.22 1281.24C1086.02 1308.95 1079.93 1338.23 1076.01 1368.06C1072.14 1397.53 1071.32 1427.16 1071.32 1456.84C1071.33 1534.16 1071.35 1611.48 1071.31 1688.81C1071.3 1706.5 1070.57 1724.15 1065.9 1741.35C1056.59 1775.6 1036.15 1799.53 1000.63 1807.17C949.349 1818.2 903.021 1792.1 890.25 1737.67C886.806 1722.99 885.858 1708.08 885.866 1693.02C885.944 1545.04 885.911 1397.06 885.914 1249.08C885.914 1225.09 885.914 1201.09 885.957 1177.09C885.983 1163.01 887.909 1149.18 892.124 1135.73C904.536 1096.14 938.543 1073.34 982.715 1078.92C1024.05 1084.14 1051.97 1113.66 1056.27 1155.11C1056.78 1160.08 1057.09 1165.07 1057.44 1170.05C1057.77 1174.68 1056.92 1179.37 1058.19 1184.38C1062.23 1184.34 1063.49 1180.77 1065.49 1178.53C1082.66 1159.33 1101.33 1141.82 1122.35 1126.88C1164.59 1096.84 1211.79 1081.69 1263.42 1079.82C1292.21 1078.78 1320.71 1080.84 1348.59 1088.56C1397.99 1102.23 1436.05 1131.34 1464.3 1173.76C1466.88 1177.64 1469.43 1181.54 1472.02 1185.41C1472.2 1185.68 1472.54 1185.83 1473.01 1186.2C1476.92 1185.46 1478.45 1181.79 1480.75 1179.18C1496.2 1161.62 1512.85 1145.34 1531.46 1131.11C1575.85 1097.15 1625.99 1080.18 1681.88 1079.63C1719.23 1079.26 1755.67 1083.86 1790.56 1097.83C1832.16 1114.49 1865.04 1141.38 1887.44 1180.59C1900.05 1202.67 1906.11 1226.8 1909.99 1251.61C1914.12 1277.99 1916.02 1304.57 1916.04 1331.27C1916.12 1453.58 1916.09 1575.9 1916.15 1698.21C1916.15 1714.65 1914.36 1730.84 1909.53 1746.56C1895.79 1791.31 1857.78 1812.93 1813.4 1809.17C1772.06 1805.66 1739.76 1776.92 1731.97 1727.68C1730.09 1715.77 1729.72 1703.82 1729.72 1691.81C1729.72 1590.16 1729.8 1488.51 1729.64 1386.85C1729.59 1357.19 1728.55 1327.54 1724.13 1298.13C1721.72 1282.09 1716.02 1267.31 1707.05 1253.73C1693.89 1233.79 1675.18 1223.14 1651.79 1219.93C1604.8 1213.48 1566.97 1230.67 1535.78 1264.84C1517.93 1284.4 1508.61 1307.92 1503.9 1333.72C1496.57 1373.92 1495.25 1414.51 1495.18 1455.18C1495.05 1532.84 1495.17 1610.5 1495.12 1688.15C1495.11 1706.17 1494.55 1724.17 1489.75 1741.7C1480.46 1775.59 1460.02 1799.03 1425.01 1806.79C1390.96 1814.35 1359.96 1808.09 1335.37 1781.37C1321.31 1766.1 1315.22 1747.18 1311.93 1727.12C1310.03 1715.54 1309.82 1703.91 1309.82 1692.23C1309.78 1590.25 1309.9 1488.26 1309.58 1386.28C1309.49 1357.3 1308.38 1328.31 1304.36 1299.53C1303.48 1293.24 1302.11 1287.08 1300.1 1280.22Z" fill="#9B59B6"/>
<path d="M2257.05 1691.69C2256.55 1712.87 2256.41 1733.52 2256.4 1754.17C2256.37 1821.8 2256.34 1889.43 2256.42 1957.06C2256.44 1976.12 2255.31 1995.03 2250.12 2013.46C2248.4 2019.53 2246.39 2025.58 2243.81 2031.33C2230.97 2059.98 2208.43 2074.57 2177.33 2076.17C2163.3 2076.89 2149.36 2076.18 2135.82 2071.85C2119 2066.47 2106.87 2056.04 2099.85 2039.62C2093.5 2024.76 2090.09 2009.19 2088.38 1993.26C2087.07 1981.02 2086.27 1968.72 2086.27 1956.36C2086.32 1698.17 2086.31 1439.98 2086.3 1181.79C2086.3 1168.42 2087.38 1155.14 2090.33 1142.11C2101.8 1091.38 2140.99 1073.79 2182.28 1078.97C2220.67 1083.8 2246.67 1110.1 2254 1149.1C2256.92 1164.65 2256.06 1180.3 2256.67 1196.83C2256.94 1198.09 2257.07 1198.44 2257.43 1198.29C2261.26 1196.26 2262.92 1192.79 2265.26 1190.07C2283.58 1168.8 2303.47 1149.2 2325.8 1132.12C2371.02 1097.53 2422.21 1080.52 2479 1079.68C2563.31 1078.44 2635.69 1106.82 2694.48 1167.61C2729.12 1203.42 2752.38 1246.3 2767.96 1293.4C2780.06 1329.97 2786.17 1367.65 2788.64 1406.06C2792.03 1458.62 2788.67 1510.59 2776.04 1561.78C2763.96 1610.77 2744.93 1656.79 2713.92 1697C2662.33 1763.91 2594.29 1801.23 2509.89 1808.51C2482.81 1810.84 2456.01 1809.17 2429.29 1804.7C2392.02 1798.46 2358.89 1783.06 2328.98 1760.17C2303.42 1740.61 2281.17 1717.77 2260.25 1692.57C2259.18 1691.36 2258.42 1691.02 2257.05 1691.69Z" fill="#9B59B6"/>
<path d="M2606.41 1393.62C2612.02 1447.76 2609.84 1500.3 2592.01 1551.35C2585.39 1570.31 2576.23 1588.03 2564.69 1604.5C2506.44 1687.65 2400.78 1686.36 2338.82 1633.73C2305.06 1605.05 2284.55 1568.55 2274.2 1525.94C2264.18 1484.68 2263.62 1442.86 2267.27 1400.83C2269.32 1377.18 2274.02 1354.08 2281.85 1331.63C2294.14 1296.39 2314.86 1267.25 2344.55 1244.54C2405.49 1197.95 2504.95 1196.48 2563.46 1275.92C2585.45 1305.78 2597.68 1339.67 2603.95 1375.92C2604.92 1381.49 2605.53 1387.12 2606.41 1393.62Z" fill="#F1C40F"/>
</g>
<defs>
<clipPath id="clip0_51_3">
<rect width="3000" height="3000" fill="white"/>
</clipPath>
</defs>
</svg>
